<?xml version="1.0" encoding="UTF-8"?>
<svg width="700pt" height="700pt" version="1.1" viewBox="0 0 700 700" xmlns="http://www.w3.org/2000/svg" xmlns:xlink="http://www.w3.org/1999/xlink">
 <g>
  <path d="m436.57 96.266c-4.7031-13.777-45.863-20.945-86.574-20.945s-81.816 7.168-86.574 20.945c-0.28516 0.43359-0.44141 0.9375-0.44922 1.4531v363.33c0 15.512 43.793 23.574 87.023 23.574s87.023-8.1211 87.023-23.574v-363.33c-0.007813-0.51562-0.16406-1.0195-0.44922-1.4531zm-5.1523 312.93c0 7.5039-30.969 17.977-81.426 17.977-50.457 0-81.426-10.473-81.426-17.977l0.003907-301.39c13.051 9.8008 47.379 14.727 81.426 14.727s68.375-5.0391 81.426-14.727zm-81.422-328.27c50.398 0 81.426 10.473 81.426 17.977 0 7.5-31.027 18.031-81.426 18.031s-81.426-10.531-81.426-17.977c0-7.4492 31.027-18.031 81.426-18.031zm0 398.11c-50.398 0-81.426-10.473-81.426-17.977v-43.012c13.047 9.6875 47.375 14.727 81.426 14.727 34.047 0 68.375-5.0391 81.426-14.727v43.008c0 7.5039-31.027 18.031-81.426 18.031z"/>
  <path d="m408.41 266.67c0.74609 0 1.457-0.29297 1.9805-0.82031 0.52734-0.52344 0.82031-1.2383 0.82031-1.9805v-123.2c0-1.5469-1.2539-2.8008-2.8008-2.8008-1.543 0-2.7969 1.2539-2.7969 2.8008v123.2c0 0.74219 0.29297 1.457 0.82031 1.9805 0.52344 0.52734 1.2344 0.82031 1.9766 0.82031z"/>
  <use x="70" y="644" xlink:href="#w"/>
  <use x="90.550781" y="644" xlink:href="#c"/>
  <use x="104.359375" y="644" xlink:href="#a"/>
  <use x="123.347656" y="644" xlink:href="#b"/>
  <use x="142.242188" y="644" xlink:href="#e"/>
  <use x="155.628906" y="644" xlink:href="#a"/>
  <use x="174.617188" y="644" xlink:href="#j"/>
  <use x="204.410156" y="644" xlink:href="#i"/>
  <use x="224.453125" y="644" xlink:href="#h"/>
  <use x="252.453125" y="644" xlink:href="#g"/>
  <use x="270.292969" y="644" xlink:href="#d"/>
  <use x="289.53125" y="644" xlink:href="#v"/>
  <use x="308.148438" y="644" xlink:href="#b"/>
  <use x="336.792969" y="644" xlink:href="#u"/>
  <use x="364.65625" y="644" xlink:href="#b"/>
  <use x="383.550781" y="644" xlink:href="#c"/>
  <use x="397.359375" y="644" xlink:href="#t"/>
  <use x="406.957031" y="644" xlink:href="#a"/>
  <use x="425.945312" y="644" xlink:href="#f"/>
  <use x="435.546875" y="644" xlink:href="#f"/>
  <use x="445.140625" y="644" xlink:href="#b"/>
  <use x="70" y="672" xlink:href="#s"/>
  <use x="82.183594" y="672" xlink:href="#c"/>
  <use x="95.992188" y="672" xlink:href="#d"/>
  <use x="115.226562" y="672" xlink:href="#r"/>
  <use x="154.152344" y="672" xlink:href="#e"/>
  <use x="167.535156" y="672" xlink:href="#q"/>
  <use x="187.46875" y="672" xlink:href="#a"/>
  <use x="216.207031" y="672" xlink:href="#p"/>
  <use x="239.640625" y="672" xlink:href="#d"/>
  <use x="258.878906" y="672" xlink:href="#o"/>
  <use x="278.8125" y="672" xlink:href="#n"/>
  <use x="308.492188" y="672" xlink:href="#m"/>
  <use x="329.015625" y="672" xlink:href="#c"/>
  <use x="342.820312" y="672" xlink:href="#d"/>
  <use x="362.058594" y="672" xlink:href="#l"/>
  <use x="371.65625" y="672" xlink:href="#a"/>
  <use x="390.648438" y="672" xlink:href="#k"/>
  <use x="407.242188" y="672" xlink:href="#e"/>
 </g>
</svg>
